<svg xmlns="http://www.w3.org/2000/svg" viewBox="0 0 110 800" aria-hidden="true">
  <path d="M55 800 Q40 650 50 500 Q30 380 45 260 Q25 160 50 80" stroke="#5a8a50" stroke-width="1.5" fill="none" opacity="0.7"/>
  <path d="M35 800 Q55 700 40 580 Q60 460 35 340 Q50 220 30 100" stroke="#5a8a50" stroke-width="1" fill="none" opacity="0.5"/>
  <g transform="translate(20,680)">
    <circle cx="30" cy="30" r="28" fill="#f5f0e0" opacity="0.85"/>
    <circle cx="30" cy="30" r="20" fill="#f0ead5" opacity="0.9"/>
    <circle cx="30" cy="30" r="13" fill="#e8e0c8" opacity="0.95"/>
    <circle cx="30" cy="30" r="7" fill="#d8c8a0"/>
    <ellipse cx="10" cy="20" rx="12" ry="8" fill="#f5f0e0" opacity="0.7" transform="rotate(-30 10 20)"/>
    <ellipse cx="50" cy="18" rx="12" ry="8" fill="#f5f0e0" opacity="0.7" transform="rotate(30 50 18)"/>
    <ellipse cx="15" cy="48" rx="10" ry="7" fill="#f5f0e0" opacity="0.7" transform="rotate(20 15 48)"/>
    <ellipse cx="48" cy="46" rx="10" ry="7" fill="#f5f0e0" opacity="0.7" transform="rotate(-20 48 46)"/>
  </g>
  <g transform="translate(40,580)">
    <circle cx="20" cy="20" r="18" fill="#f5f0e0" opacity="0.75"/>
    <circle cx="20" cy="20" r="12" fill="#ede5d0" opacity="0.9"/>
    <circle cx="20" cy="20" r="6" fill="#d8c8a0"/>
  </g>
  <ellipse cx="60" cy="450" rx="18" ry="8" fill="#5a8a50" opacity="0.6" transform="rotate(-45 60 450)"/>
  <ellipse cx="30" cy="420" rx="15" ry="7" fill="#6a9a60" opacity="0.55" transform="rotate(20 30 420)"/>
  <ellipse cx="55" cy="320" rx="16" ry="7" fill="#5a8a50" opacity="0.6" transform="rotate(-30 55 320)"/>
  <ellipse cx="25" cy="280" rx="14" ry="6" fill="#6a9a60" opacity="0.5" transform="rotate(35 25 280)"/>
  <ellipse cx="50" cy="200" rx="14" ry="6" fill="#5a8a50" opacity="0.55" transform="rotate(-20 50 200)"/>
  <ellipse cx="30" cy="160" rx="12" ry="5" fill="#6a9a60" opacity="0.5" transform="rotate(40 30 160)"/>
  <circle cx="65" cy="350" r="7" fill="#f5f0e0" opacity="0.7"/>
  <circle cx="65" cy="348" r="4" fill="#e8e0c8" opacity="0.8"/>
  <circle cx="35" cy="240" r="6" fill="#f5f0e0" opacity="0.7"/>
  <circle cx="35" cy="238" r="3.5" fill="#e8e0c8"/>
  <circle cx="60" cy="140" r="7" fill="#f5f0e0" opacity="0.65"/>
  <circle cx="60" cy="138" r="4" fill="#e8e0c8"/>
  <circle cx="48" cy="500" r="3" fill="#c9a84c" opacity="0.55"/>
  <circle cx="40" cy="510" r="2.5" fill="#c9a84c" opacity="0.5"/>
  <circle cx="55" cy="515" r="2" fill="#c9a84c" opacity="0.45"/>
  <circle cx="35" cy="380" r="2.5" fill="#c9a84c" opacity="0.5"/>
  <circle cx="62" cy="260" r="2.5" fill="#c9a84c" opacity="0.45"/>
</svg>
