<svg xmlns="http://www.w3.org/2000/svg" viewBox="0 0 62 130" aria-hidden="true">
  <line x1="31" y1="0" x2="31" y2="16" stroke="#a07830" stroke-width="1.5"/>
  <rect x="24" y="10" width="14" height="7" rx="2" fill="url(#lg)"/>
  <path d="M18 24 Q31 17 44 24" stroke="#a07830" stroke-width="1.2" fill="url(#lg)"/>
  <rect x="18" y="23" width="26" height="5" rx="1" fill="url(#lg)"/>
  <path d="M16 28 Q31 22 46 28 L50 88 Q31 96 12 88 Z" fill="url(#lb)" opacity="0.92"/>
  <path d="M19 32 L19 84 Q31 90 43 84 L43 32 Q31 26 19 32Z" fill="none" stroke="#c9a84c" stroke-width="0.7" opacity="0.5"/>
  <path d="M19 50 Q31 45 43 50" fill="none" stroke="#c9a84c" stroke-width="0.5" opacity="0.4"/>
  <path d="M19 68 Q31 63 43 68" fill="none" stroke="#c9a84c" stroke-width="0.5" opacity="0.4"/>
  <ellipse cx="31" cy="58" rx="10" ry="14" fill="#ffe870" opacity="0.35"/>
  <ellipse cx="31" cy="58" rx="5" ry="7" fill="#fff5a0" opacity="0.55"/>
  <ellipse cx="31" cy="88" rx="19" ry="6" fill="url(#lg)"/>
  <rect x="23" y="88" width="16" height="9" rx="2" fill="url(#lg)"/>
  <path d="M25 97 Q31 107 37 97" stroke="#a07830" stroke-width="1.2" fill="none"/>
  <line x1="28" y1="107" x2="28" y2="118" stroke="#a07830" stroke-width="0.8"/>
  <line x1="31" y1="107" x2="31" y2="120" stroke="#a07830" stroke-width="0.8"/>
  <line x1="34" y1="107" x2="34" y2="118" stroke="#a07830" stroke-width="0.8"/>
  <path d="M22 36 Q26 30 30 34" stroke="rgba(255,240,180,0.4)" stroke-width="1.5" fill="none"/>
  <defs>
    <linearGradient id="lg" x1="0%" y1="0%" x2="100%" y2="0%">
      <stop offset="0%" stop-color="#8a6520"/>
      <stop offset="40%" stop-color="#e2c060"/>
      <stop offset="70%" stop-color="#c9a84c"/>
      <stop offset="100%" stop-color="#7a5518"/>
    </linearGradient>
    <linearGradient id="lb" x1="0%" y1="0%" x2="100%" y2="0%">
      <stop offset="0%" stop-color="#7a5518" stop-opacity="0.8"/>
      <stop offset="30%" stop-color="#d4aa4a" stop-opacity="0.7"/>
      <stop offset="60%" stop-color="#e8cc78" stop-opacity="0.75"/>
      <stop offset="100%" stop-color="#6a4510" stop-opacity="0.8"/>
    </linearGradient>
  </defs>
</svg>
